# xmcd
#
# Track frame offsets:
# 150
# 24097
# 49890
# 72950
# 99265
# 132375
# 139666
# 158560
# 181045
# 213185
# 237434
# 265899
#
# Disc length: 4189 seconds
#
#
# Revision: 0
# Processed by: cddbd v1.5.1PL2 Copyright (c) Steve Scherf et al.
# Submitted via: FreeRIP 2.945 
#
DISCID=9a105b0c
DTITLE=ASAS DA ADORACAO 2 - SUBINDO A MONTANHA
DYEAR=2005
DGENRE=Gospel
TTITLE0=SUBINDO A MONTANHA
TTITLE1=MAIS ALTO
TTITLE2=EU PRECISO DE TI
TTITLE3=LEMA-ME MAIS ALTO
TTITLE4=SENHOR ESTOU AQUI
TTITLE5=FUI
TTITLE6=TANTO TE QUERO
TTITLE7=TU ES O PAO DA VIDA
TTITLE8=DA-ME MAIS
TTITLE9=EM TUA PRESENCA
TTITLE10=QUERO ESTAR COM DEUS
TTITLE11=CANTICO DA MONTANHA
EXTD=
EXTT0=
EXTT1=
EXTT2=
EXTT3=
EXTT4=
EXTT5=
EXTT6=
EXTT7=
EXTT8=
EXTT9=
EXTT10=
EXTT11=
PLAYORDER=
